<mxfile host="app.diagrams.net" modified="2024-07-23T03:29:26.220Z" agent="Mozilla/5.0 (Windows NT 10.0; Win64; x64) AppleWebKit/537.36 (KHTML, like Gecko) Chrome/126.0.0.0 Safari/537.36 Edg/126.0.0.0" version="24.7.0" etag="Jy0exu8F2xXL0fBqTPnZ" type="github">
  <diagram name="第 1 页" id="EDhftvS7ByngB6ZHv_pR">
    <mxGraphModel>
      <root>
        <mxCell id="0" />
        <mxCell id="1" parent="0" />
      </root>
    </mxGraphModel>
  </diagram>
</mxfile>
